<svg width="296" height="283" viewBox="0 0 296 283" fill="none" xmlns="http://www.w3.org/2000/svg">
<path d="M166.627 51.1816L199.966 51.3225L227.904 100.039L204.54 99.9407L213.34 135.752L166.061 90.2632L197.381 90.3955L166.627 51.1816Z" fill="#9C0001"/>
<path d="M143.839 80.0606L176.539 80.1987L147.291 42.9209C146.686 42.1317 147.24 40.991 148.234 40.9952L205.159 41.2357C205.575 41.2374 205.975 41.4618 206.181 41.8337L244.36 108.421C244.817 109.21 244.249 110.202 243.329 110.198L217.441 110.089L230.487 163.226C230.764 164.385 229.366 165.195 228.508 164.36L143.014 82.0907C142.245 81.3601 142.77 80.0561 143.839 80.0606ZM213.34 135.752L204.54 99.9406L227.904 100.039L199.966 51.3224L166.627 51.1816L197.381 90.3954L166.061 90.2632L213.34 135.752Z" fill="black"/>
<g clip-path="url(#clip0_126_15)">
<path d="M73.1314 51.4105L96.2106 45.0239L125.003 73.2752L108.829 77.7509L121.878 100.801L80.341 78.5432L102.023 72.5433L73.1314 51.4105Z" fill="#9C0001"/>
<path d="M62.991 75.8107L85.6284 69.5464L58.1548 49.4594C57.5828 49.0313 57.744 48.1349 58.4325 47.9444L97.8399 37.0393C98.1276 36.9597 98.4477 37.0371 98.6626 37.2542L138.012 75.8703C138.481 76.3268 138.281 77.1233 137.644 77.2996L119.723 82.2588L139.078 116.463C139.495 117.21 138.686 118.043 137.931 117.632L62.8154 77.3749C62.1418 77.0193 62.2512 76.0155 62.991 75.8107ZM121.878 100.801L108.829 77.7509L125.003 73.2751L96.2107 45.0238L73.1314 51.4104L102.023 72.5433L80.341 78.5432L121.878 100.801Z" fill="black"/>
</g>
<g clip-path="url(#clip1_126_15)">
<path d="M64.8484 154.514L87.1278 132.57L137.923 146.523L122.309 161.901L151.837 179.916L90.3053 180.896L111.236 160.281L64.8484 154.514Z" fill="#9C0001"/>
<path d="M68.7725 188.796L90.6253 167.272L46.52 161.798C45.5955 161.673 45.2102 160.548 45.8749 159.893L83.9164 122.425C84.1942 122.151 84.6086 122.036 84.9917 122.148L154.415 141.223C155.24 141.446 155.518 142.482 154.903 143.088L137.603 160.127L181.409 186.865C182.359 187.453 181.964 188.917 180.842 188.928L69.5654 190.692C68.5708 190.714 68.0582 189.499 68.7725 188.796ZM151.837 179.916L122.309 161.901L137.923 146.523L87.1278 132.57L64.8484 154.514L111.236 160.281L90.3053 180.896L151.837 179.916Z" fill="black"/>
</g>
<defs>
<clipPath id="clip0_126_15">
<rect width="109.178" height="109.178" fill="white" transform="matrix(-0.963779 0.266703 0.266703 0.963779 139.922 14.774)"/>
</clipPath>
<clipPath id="clip1_126_15">
<rect width="142.573" height="142.573" fill="white" transform="matrix(-0.712454 0.701719 0.701719 0.712454 117.796 70.2947)"/>
</clipPath>
</defs>
</svg>
